<svg width="23" height="21" viewBox="0 0 23 21" fill="none" xmlns="http://www.w3.org/2000/svg">
<path fill-rule="evenodd" clip-rule="evenodd" d="M1.36364 20.624L1.36364 0.624023L2.63636 0.624023L2.63636 20.624H1.36364Z" fill="black"/>
<path fill-rule="evenodd" clip-rule="evenodd" d="M10.4545 20.624L10.4545 0.624023L11.7273 0.624023L11.7273 20.624H10.4545Z" fill="black"/>
<path fill-rule="evenodd" clip-rule="evenodd" d="M19.5455 20.624L19.5455 0.624023L20.8182 0.624023L20.8182 20.624H19.5455Z" fill="black"/>
<path d="M4.54545 15.624C4.54545 16.8792 3.52792 17.8968 2.27273 17.8968C1.01753 17.8968 0 16.8792 0 15.624C0 14.3688 1.01753 13.3513 2.27273 13.3513C3.52792 13.3513 4.54545 14.3688 4.54545 15.624Z" fill="black"/>
<path d="M22.7273 15.624C22.7273 16.8792 21.7097 17.8968 20.4545 17.8968C19.1994 17.8968 18.1818 16.8792 18.1818 15.624C18.1818 14.3688 19.1994 13.3513 20.4545 13.3513C21.7097 13.3513 22.7273 14.3688 22.7273 15.624Z" fill="black"/>
<path d="M13.6364 6.07857C13.6364 7.33376 12.6188 8.3513 11.3636 8.3513C10.1084 8.3513 9.09091 7.33376 9.09091 6.07857C9.09091 4.82338 10.1084 3.80584 11.3636 3.80584C12.6188 3.80584 13.6364 4.82338 13.6364 6.07857Z" fill="black"/>
</svg>
