<svg width="14" height="18" viewBox="0 0 14 18" fill="none" xmlns="http://www.w3.org/2000/svg">
<path d="M13.2354 6.99902C13.2354 3.4779 10.3809 0.624023 6.86035 0.624023C3.33976 0.624023 0.485352 3.4779 0.485352 6.99902C0.485352 7.02452 0.488539 7.04896 0.489602 7.07446C0.481102 7.20993 0.477914 7.54143 0.583102 8.07693C0.676602 8.62093 0.836508 9.14102 1.05751 9.62871C1.76938 11.4206 3.35038 14.1029 6.86088 17.6145V17.624C6.86301 17.6224 6.86407 17.6208 6.8662 17.6192C6.86726 17.6208 6.86832 17.6224 6.87045 17.624V17.6145C10.4383 14.0439 12.0114 11.3346 12.7046 9.54318C12.8916 9.11552 13.0303 8.66449 13.1195 8.19434C13.2885 7.40862 13.2354 6.99902 13.2354 6.99902ZM6.86992 10.1865C5.10935 10.1865 3.68241 8.75959 3.68241 6.99902C3.68241 5.23846 5.10935 3.81152 6.86992 3.81152C8.62942 3.81152 10.0574 5.23846 10.0574 6.99902C10.0574 8.75959 8.62942 10.1865 6.86992 10.1865Z" fill="black"/>
</svg>
