<svg width="13" height="14" viewBox="0 0 13 14" fill="none" xmlns="http://www.w3.org/2000/svg">
<path d="M12.7158 10.7508L12.6375 10.6062C12.4184 10.1291 9.72672 9.40633 9.50763 9.39187L9.33548 9.40633C9.00685 9.46415 8.64691 9.73882 7.94268 10.3026C7.80184 10.4183 7.61405 10.4472 7.4419 10.3604C6.51859 9.88339 5.39183 8.92927 4.82845 8.35101C4.21812 7.72938 3.4826 6.70298 3.13831 5.87897C3.07571 5.71995 3.13831 5.54647 3.26351 5.43082C4.06163 4.76583 4.40591 4.44778 4.43721 4.10083C4.45286 3.89844 3.98338 1.33966 3.49825 1.0939L3.3574 1.00716C3.04441 0.819231 2.57493 0.54456 2.0585 0.645755C1.93331 0.674667 1.80811 0.718037 1.69856 0.775862C1.35428 0.978252 0.493558 1.52759 0.102323 2.23596C-0.132419 2.68411 -0.241965 6.74635 3.04441 10.1725C6.2995 13.5698 10.3214 13.7143 10.9161 13.5987H10.9317L10.9787 13.5842C11.7924 13.3096 12.481 12.6012 12.7471 12.2976C13.2322 11.7627 12.9036 11.1122 12.7158 10.7508Z" fill="black"/>
</svg>
