<svg width="17" height="14" viewBox="0 0 17 14" fill="none" xmlns="http://www.w3.org/2000/svg">
<path fill-rule="evenodd" clip-rule="evenodd" d="M10.4942 7.93575L16.2499 3.4589V11.1865C16.2499 12.5304 15.1563 13.624 13.8124 13.624H2.43748C1.09362 13.624 0 12.5304 0 11.1865V3.4589L5.75571 7.93575C6.45283 8.47768 7.28889 8.74905 8.12495 8.74905C8.96101 8.74905 9.79706 8.47768 10.4942 7.93575ZM6.75305 6.65274L0.407466 1.71683C0.844588 1.05952 1.59046 0.624023 2.43708 0.624023H13.812C14.6594 0.624023 15.4053 1.05952 15.8424 1.71683L9.49685 6.65274C8.68923 7.2808 7.56067 7.2808 6.75305 6.65274Z" fill="black"/>
</svg>
