<svg width="147" height="25" viewBox="0 0 147 25" fill="none" xmlns="http://www.w3.org/2000/svg">
<path d="M0.932129 5.95376C0.932129 7.5143 1.428 8.79773 2.40516 9.81865C3.38232 10.8396 4.68034 11.35 6.28463 11.35C7.9035 11.35 9.25986 10.7958 10.3537 9.6728L9.36195 8.31645C8.4723 9.19151 7.46597 9.62905 6.35755 9.62905C5.2783 9.62905 4.4324 9.26444 3.80527 8.5498C3.17814 7.82057 2.87186 6.94551 2.87186 5.92459C2.87186 4.91827 3.17814 4.07237 3.79068 3.3869C4.40323 2.70143 5.24913 2.36599 6.34296 2.36599C7.32012 2.36599 8.41396 2.8181 9.17235 3.45982L10.0766 2.05971C9.09943 1.11172 7.83058 0.64502 6.25546 0.64502C4.7095 0.64502 3.44066 1.15548 2.43433 2.1618C1.428 3.16813 0.932129 4.43698 0.932129 5.95376Z" fill="white"/>
<path d="M18.9267 11.175C19.9476 11.175 20.7935 10.9271 21.479 10.4166C22.1645 9.90615 22.4999 9.14776 22.4999 8.1706C22.4999 7.06218 21.9165 6.04127 20.8227 5.735V5.70583C21.5957 5.28288 22.077 4.46615 22.077 3.48899C22.077 1.81178 20.7935 0.820033 18.8684 0.820033H15.1785V11.175H18.9267ZM17.0599 2.43891H18.8538C19.6851 2.43891 20.1664 2.96395 20.1664 3.72234C20.1664 4.49532 19.6851 5.04953 18.883 5.04953H17.0599V2.43891ZM17.0599 6.56631H19.0726C20.006 6.56631 20.5748 7.17886 20.5748 8.05393C20.5748 8.94358 20.006 9.55613 19.0726 9.55613H17.0599V6.56631Z" fill="white"/>
<path d="M34.0481 11.175V9.55613H29.4977V6.77049H32.9834V5.15162H29.4977V2.43891H33.8147V0.820033H27.6163V11.175H34.0481Z" fill="white"/>
<path d="M43.3433 11.175V2.43891H46.7415V0.820033H38.0783V2.43891H41.4765V11.175H43.3433Z" fill="white"/>
<path d="M49.6758 11.2917C52.5198 11.1896 53.7011 8.76857 53.7011 3.67859V2.43891H56.4284V11.175H58.3098V0.820033H51.9072V3.64942C51.9072 7.61639 51.2363 9.35194 49.6758 9.57071V11.2917Z" fill="white"/>
<path d="M74.2854 11.175V0.820033H72.4185V11.175H74.2854ZM67.8828 11.175C68.8308 11.175 69.5892 10.8687 70.1871 10.2562C70.7851 9.62905 71.0768 8.8269 71.0768 7.83516C71.0768 6.81425 70.7705 5.99752 70.1725 5.38497C69.5746 4.75784 68.8016 4.45156 67.839 4.45156H65.9139V0.820033H64.0325V11.175H67.8828ZM65.9139 6.07044H67.5182C68.5537 6.07044 69.1662 6.77049 69.1662 7.83516C69.1662 8.89983 68.5828 9.55613 67.5473 9.55613H65.9139V6.07044Z" fill="white"/>
<path d="M86.4485 11.175V9.55613H81.8981V6.77049H85.3838V5.15162H81.8981V2.43891H86.2151V0.820033H80.0167V11.175H86.4485Z" fill="white"/>
<path d="M100.25 11.175L104.188 5.20996C104.436 4.80159 104.728 4.26197 105.049 3.60567H105.078L104.976 5.20996V11.175H106.842V0.820033H104.976L101.067 6.78508C100.819 7.19344 100.527 7.73307 100.192 8.40395H100.163L100.265 6.79966V0.820033H98.3834V11.175H100.25Z" fill="white"/>
<path d="M114.411 9.55613C115.3 8.11226 115.753 5.99752 115.753 3.21189V2.43891H118.524V9.55613H114.411ZM111.421 13.2168H113.156V11.175H119.88V13.2168H121.557V9.55613H120.405V0.820033H113.973V3.08063C113.973 5.88084 113.477 8.03934 112.471 9.55613H111.421V13.2168Z" fill="white"/>
<path d="M133.009 11.175V9.55613H128.459V6.77049H131.945V5.15162H128.459V2.43891H132.776V0.820033H126.578V11.175H133.009Z" fill="white"/>
<path d="M139.956 11.175L143.894 5.20996C144.142 4.80159 144.434 4.26197 144.755 3.60567H144.784L144.682 5.20996V11.175H146.549V0.820033H144.682L140.773 6.78508C140.525 7.19344 140.234 7.73307 139.898 8.40395H139.869L139.971 6.79966V0.820033H138.09V11.175H139.956Z" fill="white"/>
<path d="M1.81127 23.0632L4.66622 18.7478C4.8203 18.5028 4.99251 18.1825 5.20096 17.7773H5.21909L5.16471 18.7478V23.0632H6.05292V16.4111H5.17377L2.33695 20.7171C2.18287 20.9526 2.0016 21.2824 1.79315 21.697H1.77502L1.8294 20.7265V16.4111H0.932129V23.0632H1.81127Z" fill="#999999"/>
<path d="M9.62345 19.6995C9.62345 20.6888 9.92254 21.518 10.5298 22.1869C11.137 22.8465 11.9346 23.1763 12.9044 23.1763C13.8742 23.1763 14.6989 22.8277 15.3787 22.121L14.8983 21.452C14.3817 21.9891 13.6476 22.3188 12.9316 22.3188C12.2156 22.3188 11.6355 22.0644 11.2005 21.5556C10.7654 21.0468 10.5479 20.425 10.5479 19.69C10.5479 18.9645 10.7564 18.3521 11.1823 17.8715C11.6083 17.391 12.1884 17.146 12.9134 17.146C13.566 17.146 14.2911 17.4287 14.7624 17.8715L15.2155 17.1743C14.6264 16.5901 13.847 16.298 12.8772 16.298C11.9346 16.298 11.1552 16.6184 10.5388 17.2685C9.9316 17.9187 9.62345 18.729 9.62345 19.6995Z" fill="#999999"/>
<path d="M19.6728 23.0632V20.0198H20.6245L22.3284 23.0632H23.3526L21.3677 19.5864V19.5676L23.2347 16.4111H22.2468L20.6245 19.2095H19.6728V16.4111H18.7756V23.0632H19.6728Z" fill="#999999"/>
<path d="M26.4455 22.7428C26.8443 23.0349 27.234 23.1763 27.6147 23.1763C28.2491 23.1763 28.7385 22.7334 29.0739 21.8383L31.1131 16.4111H30.1705L28.9832 19.7654C28.8926 20.0387 28.802 20.3213 28.7113 20.6323H28.6932L28.3307 19.756L26.7718 16.4111H25.7839L28.3125 21.6216C28.1222 22.121 27.941 22.366 27.5875 22.366C27.379 22.366 27.1343 22.2529 26.8534 22.0362L26.4455 22.7428Z" fill="#999999"/>
<path d="M33.751 19.6995C33.751 20.6888 34.0501 21.518 34.6574 22.1869C35.2646 22.8465 36.0622 23.1763 37.032 23.1763C38.0018 23.1763 38.8265 22.8277 39.5063 22.121L39.0259 21.452C38.5093 21.9891 37.7752 22.3188 37.0592 22.3188C36.3432 22.3188 35.7631 22.0644 35.3281 21.5556C34.893 21.0468 34.6755 20.425 34.6755 19.69C34.6755 18.9645 34.884 18.3521 35.3099 17.8715C35.7359 17.391 36.316 17.146 37.041 17.146C37.6936 17.146 38.4187 17.4287 38.89 17.8715L39.3431 17.1743C38.754 16.5901 37.9746 16.298 37.0048 16.298C36.0622 16.298 35.2828 16.6184 34.6664 17.2685C34.0592 17.9187 33.751 18.729 33.751 19.6995Z" fill="#999999"/>
<path d="M42.3453 19.6995C42.3453 20.6888 42.6444 21.518 43.2516 22.1869C43.8589 22.8465 44.6564 23.1763 45.6262 23.1763C46.596 23.1763 47.4208 22.8277 48.1005 22.121L47.6202 21.452C47.1035 21.9891 46.3694 22.3188 45.6534 22.3188C44.9374 22.3188 44.3574 22.0644 43.9223 21.5556C43.4873 21.0468 43.2697 20.425 43.2697 19.69C43.2697 18.9645 43.4782 18.3521 43.9042 17.8715C44.3302 17.391 44.9102 17.146 45.6353 17.146C46.2878 17.146 47.0129 17.4287 47.4842 17.8715L47.9374 17.1743C47.3483 16.5901 46.5688 16.298 45.599 16.298C44.6564 16.298 43.877 16.6184 43.2607 17.2685C42.6534 17.9187 42.3453 18.729 42.3453 19.6995Z" fill="#999999"/>
<path d="M53.8811 23.0632V17.2214H56.0835V16.4111H50.7905V17.2214H52.9929V23.0632H53.8811Z" fill="#999999"/>
<path d="M61.6324 23.0632C62.2215 23.0632 62.72 22.903 63.1097 22.5732C63.4994 22.2435 63.6988 21.7724 63.6988 21.1693C63.6988 20.4061 63.3 19.756 62.6384 19.5581V19.5393C63.1369 19.2755 63.436 18.7478 63.436 18.1071C63.436 17.0518 62.6928 16.4111 61.578 16.4111H59.3393V23.0632H61.6324ZM60.2366 17.2214H61.5689C62.158 17.2214 62.5206 17.6077 62.5206 18.2013C62.5206 18.7949 62.149 19.2095 61.578 19.2095H60.2366V17.2214ZM60.2366 19.9821H61.6777C62.3393 19.9821 62.7743 20.4344 62.7743 21.1128C62.7743 21.8006 62.3574 22.2529 61.6777 22.2529H60.2366V19.9821Z" fill="#999999"/>
<path d="M66.8621 19.69C66.8621 20.67 67.1793 21.4991 67.8138 22.1681C68.4482 22.8371 69.2277 23.1763 70.1521 23.1763C71.0766 23.1763 71.856 22.8371 72.4814 22.1681C73.1158 21.4991 73.433 20.67 73.433 19.69C73.433 18.7384 73.1158 17.9281 72.4814 17.2779C71.856 16.6278 71.0766 16.298 70.1521 16.298C69.2277 16.298 68.4482 16.6278 67.8138 17.2779C67.1793 17.9281 66.8621 18.7384 66.8621 19.69ZM67.7866 19.69C67.7866 18.974 68.0132 18.3709 68.4754 17.881C68.9376 17.391 69.4905 17.146 70.1521 17.146C70.8137 17.146 71.3666 17.391 71.8198 17.881C72.282 18.3709 72.5086 18.974 72.5086 19.69C72.5086 20.4344 72.282 21.0563 71.8198 21.5651C71.3666 22.0644 70.8137 22.3188 70.1521 22.3188C69.4905 22.3188 68.9376 22.0644 68.4754 21.5651C68.0132 21.0563 67.7866 20.4344 67.7866 19.69Z" fill="#999999"/>
<path d="M81.1209 19.69C81.1209 20.67 81.4382 21.4991 82.0726 22.1681C82.707 22.8371 83.4865 23.1763 84.4109 23.1763C85.3354 23.1763 86.1148 22.8371 86.7402 22.1681C87.3746 21.4991 87.6919 20.67 87.6919 19.69C87.6919 18.7384 87.3746 17.9281 86.7402 17.2779C86.1148 16.6278 85.3354 16.298 84.4109 16.298C83.4865 16.298 82.707 16.6278 82.0726 17.2779C81.4382 17.9281 81.1209 18.7384 81.1209 19.69ZM82.0454 19.69C82.0454 18.974 82.272 18.3709 82.7342 17.881C83.1964 17.391 83.7493 17.146 84.4109 17.146C85.0726 17.146 85.6254 17.391 86.0786 17.881C86.5408 18.3709 86.7674 18.974 86.7674 19.69C86.7674 20.4344 86.5408 21.0563 86.0786 21.5651C85.6254 22.0644 85.0726 22.3188 84.4109 22.3188C83.7493 22.3188 83.1964 22.0644 82.7342 21.5651C82.272 21.0563 82.0454 20.4344 82.0454 19.69Z" fill="#999999"/>
<path d="M90.8572 19.6995C90.8572 20.6888 91.1563 21.518 91.7635 22.1869C92.3708 22.8465 93.1683 23.1763 94.1381 23.1763C95.1079 23.1763 95.9326 22.8277 96.6124 22.121L96.132 21.452C95.6154 21.9891 94.8813 22.3188 94.1653 22.3188C93.4493 22.3188 92.8692 22.0644 92.4342 21.5556C91.9992 21.0468 91.7816 20.425 91.7816 19.69C91.7816 18.9645 91.9901 18.3521 92.4161 17.8715C92.842 17.391 93.4221 17.146 94.1472 17.146C94.7997 17.146 95.5248 17.4287 95.9961 17.8715L96.4492 17.1743C95.8601 16.5901 95.0807 16.298 94.1109 16.298C93.1683 16.298 92.3889 16.6184 91.7726 17.2685C91.1653 17.9187 90.8572 18.729 90.8572 19.6995Z" fill="#999999"/>
<path d="M102.302 23.0632C102.891 23.0632 103.39 22.903 103.78 22.5732C104.169 22.2435 104.369 21.7724 104.369 21.1693C104.369 20.4061 103.97 19.756 103.308 19.5581V19.5393C103.807 19.2755 104.106 18.7478 104.106 18.1071C104.106 17.0518 103.363 16.4111 102.248 16.4111H100.009V23.0632H102.302ZM100.907 17.2214H102.239C102.828 17.2214 103.191 17.6077 103.191 18.2013C103.191 18.7949 102.819 19.2095 102.248 19.2095H100.907V17.2214ZM100.907 19.9821H102.348C103.009 19.9821 103.444 20.4344 103.444 21.1128C103.444 21.8006 103.027 22.2529 102.348 22.2529H100.907V19.9821Z" fill="#999999"/>
<path d="M111.81 23.0632V22.2529H108.828V20.114H111.121V19.3037H108.828V17.2214H111.656V16.4111H107.931V23.0632H111.81Z" fill="#999999"/>
<path d="M122.699 23.0632V24.3823H123.515V22.2529H122.726V16.4111H121.838V22.2529H119.473V16.4111H118.575V22.2529H116.21V16.4111H115.313V23.0632H122.699Z" fill="#999999"/>
<path d="M127.178 23.0632L127.821 21.1505H130.232L130.875 23.0632H131.8L129.507 16.4111H128.555L126.262 23.0632H127.178ZM128.773 18.2767C128.845 18.0411 128.927 17.7302 129.018 17.3251H129.036L129.289 18.2767L129.996 20.3779H128.057L128.773 18.2767Z" fill="#999999"/>
<path d="M136.885 23.0632V17.2214H139.087V16.4111H133.794V17.2214H135.997V23.0632H136.885Z" fill="#999999"/>
<path d="M144.636 23.0632C145.198 23.0632 145.66 22.8748 146.014 22.4979C146.367 22.121 146.549 21.6216 146.549 21.0092C146.549 20.359 146.367 19.8502 146.005 19.4828C145.642 19.1059 145.171 18.9174 144.6 18.9174H143.241V16.4111H142.343V23.0632H144.636ZM143.241 19.7277H144.473C145.189 19.7277 145.633 20.2271 145.633 21.0092C145.633 21.7912 145.207 22.2529 144.482 22.2529H143.241V19.7277Z" fill="#999999"/>
</svg>
