<svg width="20" height="21" viewBox="0 0 20 21" fill="none" xmlns="http://www.w3.org/2000/svg">
<path fill-rule="evenodd" clip-rule="evenodd" d="M10 9.66915C12.3472 9.66915 14.25 7.76637 14.25 5.41915H15.0357C15.0357 8.2003 12.7811 10.4549 10 10.4549C7.21885 10.4549 4.96429 8.2003 4.96429 5.41915H5.75C5.75 7.76637 7.65279 9.66915 10 9.66915ZM0.785714 0.847726H19.2143V19.2763H0.785714V0.847726ZM0.714286 0.0620117C0.319797 0.0620117 0 0.381808 0 0.776297V19.3477C0 19.7422 0.319796 20.062 0.714285 20.062H19.2857C19.6802 20.062 20 19.7422 20 19.3477V0.776298C20 0.381808 19.6802 0.0620117 19.2857 0.0620117H0.714286Z" fill="#282828"/>
</svg>
