<svg width="20" height="21" viewBox="0 0 20 21" fill="none" xmlns="http://www.w3.org/2000/svg">
<path fill-rule="evenodd" clip-rule="evenodd" d="M10 19.7287C15.0626 19.7287 19.1667 15.6246 19.1667 10.562C19.1667 5.4994 15.0626 1.39535 10 1.39535C4.93739 1.39535 0.833333 5.4994 0.833333 10.562C0.833333 15.6246 4.93739 19.7287 10 19.7287ZM10 20.562C15.5228 20.562 20 16.0849 20 10.562C20 5.03916 15.5228 0.562012 10 0.562012C4.47715 0.562012 0 5.03916 0 10.562C0 16.0849 4.47715 20.562 10 20.562Z" fill="#242424"/>
<path d="M9.26046 13.0356C9.26046 12.6499 9.27761 12.337 9.31189 12.097C9.35046 11.857 9.43404 11.6191 9.56261 11.3834C9.66975 11.1863 9.79404 11.0191 9.93546 10.882C10.0812 10.7449 10.2783 10.582 10.5269 10.3934C10.7026 10.2606 10.8376 10.1556 10.9319 10.0784C11.0262 10.0013 11.1205 9.91129 11.2148 9.80843C11.369 9.62844 11.4762 9.44201 11.5362 9.24915C11.6005 9.05201 11.6326 8.83558 11.6326 8.59986C11.6326 8.15843 11.5233 7.81558 11.3048 7.57129C11.0048 7.20701 10.5355 7.02486 9.89689 7.02486C9.62261 7.02486 9.37189 7.06343 9.14475 7.14058C8.91761 7.21772 8.73118 7.33129 8.58546 7.48129C8.44404 7.61415 8.33689 7.77701 8.26404 7.96986C8.19547 8.16272 8.16332 8.36843 8.16761 8.58701H7.19046C7.20761 8.23129 7.28261 7.89486 7.41546 7.57772C7.55261 7.25629 7.74332 6.99058 7.98761 6.78058C8.23189 6.56201 8.51904 6.39701 8.84904 6.28558C9.18332 6.17415 9.53046 6.11843 9.89046 6.11843C10.3319 6.11843 10.7369 6.18486 11.1055 6.31772C11.4783 6.45058 11.789 6.65843 12.0376 6.94129C12.239 7.15986 12.389 7.40843 12.4876 7.68701C12.5862 7.96558 12.6355 8.26558 12.6355 8.58701C12.6355 8.93415 12.569 9.26629 12.4362 9.58344C12.3033 9.89629 12.1169 10.177 11.8769 10.4256C11.744 10.567 11.5383 10.7449 11.2598 10.9591C11.0583 11.1134 10.8933 11.2506 10.7648 11.3706C10.6405 11.4863 10.5398 11.6127 10.4626 11.7499C10.3812 11.8999 10.3276 12.0434 10.3019 12.1806C10.2762 12.3177 10.2633 12.4913 10.2633 12.7013V13.0356H9.26046ZM9.26689 14.302H10.2633V15.562H9.26689V14.302Z" fill="#242424"/>
</svg>
