<svg width="20" height="21" viewBox="0 0 20 21" fill="none" xmlns="http://www.w3.org/2000/svg">
<path fill-rule="evenodd" clip-rule="evenodd" d="M6.26999 13.7919L6.27008 13.792L6.47491 13.9746C6.34128 13.85 6.21203 13.7207 6.08743 13.5871L6.26999 13.7919ZM0.139464 19.9223C-0.0464881 19.7365 -0.0464881 19.4349 0.139464 19.2492L5.61542 13.7732C4.31708 12.3168 3.52613 10.3989 3.52613 8.29892C3.52613 3.75725 7.22137 0.0620117 11.763 0.0620117C16.3047 0.0620117 19.9999 3.75701 19.9999 8.29892C19.9999 12.8408 16.3049 16.5358 11.763 16.5358C9.66303 16.5358 7.74518 15.7449 6.28875 14.4465L0.812797 19.9223C0.71994 20.0156 0.598036 20.062 0.476131 20.062C0.354226 20.062 0.232321 20.0156 0.139464 19.9223ZM19.0476 8.29892C19.0476 4.28225 15.7797 1.01439 11.763 1.01439C7.74613 1.01439 4.47851 4.28201 4.47851 8.29892C4.47851 12.3158 7.74637 15.5834 11.763 15.5834C15.7797 15.5834 19.0476 12.3156 19.0476 8.29892Z" fill="#242424"/>
</svg>
