<svg width="21" height="22" viewBox="0 0 21 22" fill="none" xmlns="http://www.w3.org/2000/svg">
<path d="M10.2725 1.18958C8.95296 1.18958 4.93746 1.18958 2.71746 3.21657C1.39546 4.53357 0.772461 6.43657 0.772461 9.18957V10.6896C0.772461 13.4426 1.39546 15.3456 2.73296 16.6776C3.39896 17.2851 4.30696 17.7706 5.41696 18.1061L5.77246 18.2131V20.8771C5.77246 21.1896 5.86296 21.1896 5.89296 21.1896C5.95446 21.1896 6.05296 21.1701 6.23996 21.0041C6.28496 20.9596 6.61496 20.6026 8.21996 18.8046L8.38196 18.6231L8.62446 18.6386C9.16196 18.6721 9.71646 18.6896 10.2725 18.6896C11.592 18.6896 15.6075 18.6896 17.8275 16.6621C19.149 15.3451 19.7725 13.4421 19.7725 10.6896V9.18957C19.7725 6.43657 19.1495 4.53357 17.812 3.20158C15.6075 1.18958 11.592 1.18958 10.2725 1.18958Z" fill="white"/>
<path d="M14.9981 13.1165C14.4426 12.6485 14.1861 12.507 13.4191 12.0465C13.0996 11.855 12.6126 11.6895 12.3571 11.6895C12.1826 11.6895 11.9736 11.823 11.8456 11.951C11.5176 12.279 11.4101 12.6895 10.8351 12.6895C10.2726 12.6895 9.29013 12.117 8.58513 11.377C7.84513 10.672 7.27263 9.68951 7.27263 9.12701C7.27263 8.55201 7.67563 8.43701 8.00363 8.10851C8.13163 7.98101 8.27263 7.77201 8.27263 7.59751C8.27263 7.34201 8.10713 6.86251 7.91563 6.54301C7.45513 5.77551 7.31413 5.51901 6.84563 4.96401C6.68713 4.77601 6.50663 4.69001 6.31763 4.68951C5.99813 4.68901 5.57863 4.84751 5.29463 5.05901C4.86763 5.37751 4.42113 5.81101 4.30163 6.35101C4.28563 6.42451 4.27613 6.49851 4.27313 6.57251C4.25013 7.13501 4.47113 7.70601 4.70963 8.18951C5.27113 9.32901 6.01413 10.432 6.82263 11.417C7.08114 11.732 7.36263 12.025 7.65413 12.308C7.93713 12.599 8.23013 12.8805 8.54513 13.1395C9.53013 13.948 10.6331 14.691 11.7726 15.2525C12.2516 15.4885 12.8156 15.7055 13.3726 15.6895C13.4521 15.687 13.5316 15.678 13.6111 15.6605C14.1511 15.5415 14.5846 15.0945 14.9031 14.6675C15.1146 14.3835 15.2731 13.9645 15.2726 13.6445C15.2721 13.4555 15.1861 13.275 14.9981 13.1165ZM15.2726 10.6895C14.9966 10.6895 14.7726 10.4655 14.7726 10.1895V9.68951C14.7726 7.20851 12.7536 5.18951 10.2726 5.18951C9.99663 5.18951 9.77263 4.96551 9.77263 4.68951C9.77263 4.41351 9.99663 4.18951 10.2726 4.18951C13.3051 4.18951 15.7726 6.65701 15.7726 9.68951V10.1895C15.7726 10.4655 15.5486 10.6895 15.2726 10.6895ZM12.2016 9.68951C11.9796 9.68951 11.7766 9.54051 11.7181 9.31551C11.5811 8.79001 11.1711 8.37951 10.6476 8.24451C10.3801 8.17501 10.2196 7.90251 10.2886 7.63501C10.3576 7.36801 10.6296 7.20751 10.8981 7.27601C11.7721 7.50251 12.4571 8.18701 12.6856 9.06301C12.7551 9.33051 12.5951 9.60301 12.3281 9.67301C12.2856 9.68401 12.2431 9.68951 12.2016 9.68951Z" fill="#7E57C2"/>
<path d="M13.7727 10.1896C13.4967 10.1896 13.2727 9.96558 13.2727 9.68958C13.2727 8.09558 12.0257 6.78058 10.4337 6.69658C10.1577 6.68208 9.94616 6.44658 9.96066 6.17108C9.97516 5.89508 10.2147 5.68308 10.4862 5.69808C12.6097 5.81008 14.2727 7.56358 14.2727 9.68958C14.2727 9.96558 14.0487 10.1896 13.7727 10.1896Z" fill="#7E57C2"/>
<path d="M10.2727 0.689453C8.02271 0.689453 4.51671 0.896453 2.38071 2.84745C0.870711 4.35095 0.272711 6.45995 0.272711 9.18945C0.272711 9.41545 0.271711 9.66745 0.273711 9.93945C0.271711 10.211 0.272711 10.463 0.272711 10.689C0.272711 13.4185 0.870711 15.5275 2.38071 17.031C3.19371 17.7735 4.20771 18.262 5.27271 18.584V20.877C5.27271 21.675 5.79721 21.6895 5.89321 21.6895H5.89771C6.14471 21.6885 6.35821 21.5675 6.57221 21.3775C6.65271 21.306 7.58221 20.27 8.59321 19.137C9.19521 19.1755 9.76721 19.1895 10.2722 19.1895C12.5222 19.1895 16.0277 18.982 18.1642 17.031C19.6737 15.528 20.2722 13.4185 20.2722 10.689C20.2722 10.463 20.2732 10.211 20.2712 9.93895C20.2732 9.66695 20.2722 9.41545 20.2722 9.18895C20.2722 6.45945 19.6742 4.35045 18.1642 2.84695C16.0282 0.896453 12.5227 0.689453 10.2727 0.689453ZM18.7727 10.515V10.689C18.7727 13.142 18.2502 14.8135 17.1297 15.945C15.1887 17.6895 11.4912 17.6895 10.2722 17.6895C9.90121 17.6895 9.29921 17.689 8.58871 17.6395C8.39121 17.8615 6.27271 20.231 6.27271 20.231V17.2995C5.22071 17.047 4.18121 16.633 3.41571 15.9455C2.29521 14.8135 1.77271 13.142 1.77271 10.689V10.515C1.77271 10.3395 1.77221 10.15 1.77371 9.92845C1.77221 9.72845 1.77221 9.53945 1.77271 9.36345V9.18945C1.77271 6.73645 2.29521 5.06495 3.41571 3.93345C5.35621 2.18895 9.05421 2.18895 10.2727 2.18895C11.4912 2.18895 15.1887 2.18895 17.1292 3.93345C18.2502 5.06495 18.7722 6.73645 18.7722 9.18945V9.36345C18.7722 9.53895 18.7727 9.72845 18.7712 9.94995C18.7727 10.1505 18.7727 10.3395 18.7727 10.515Z" fill="#7E57C2"/>
</svg>
