<svg width="20" height="21" viewBox="0 0 20 21" fill="none" xmlns="http://www.w3.org/2000/svg">
<path d="M10.2366 0.815918C7.64728 0.815918 5.16404 1.84451 3.33313 3.67542C1.50223 5.50632 0.473633 7.98957 0.473633 10.5789C0.473633 13.1682 1.50223 15.6514 3.33313 17.4823C5.16404 19.3132 7.64728 20.3418 10.2366 20.3418C12.8259 20.3418 15.3091 19.3132 17.14 17.4823C18.9709 15.6514 19.9995 13.1682 19.9995 10.5789C19.9995 7.98957 18.9709 5.50632 17.14 3.67542C15.3091 1.84451 12.8259 0.815918 10.2366 0.815918Z" fill="#29B6F6"/>
<path d="M15.0935 6.18554L13.2649 15.5218C13.2649 15.5218 13.1863 15.9485 12.6571 15.9485C12.3759 15.9485 12.231 15.8147 12.231 15.8147L8.27014 12.528L6.3322 11.5512L3.84509 10.8898C3.84509 10.8898 3.40234 10.7619 3.40234 10.3958C3.40234 10.0907 3.85778 9.94524 3.85778 9.94524L14.2631 5.81162C14.2626 5.81113 14.5809 5.6969 14.8128 5.69739C14.9553 5.69739 15.1179 5.75841 15.1179 5.94146C15.1179 6.0635 15.0935 6.18554 15.0935 6.18554Z" fill="white"/>
<path d="M9.74849 13.7542L8.0761 15.4012C8.0761 15.4012 8.00336 15.4573 7.90622 15.4598C7.87254 15.4607 7.83642 15.4554 7.79932 15.4388L8.26989 12.527L9.74849 13.7542Z" fill="#B0BEC5"/>
<path d="M13.1153 7.74577C13.0328 7.63838 12.8805 7.61885 12.7731 7.70037L6.33154 11.5553C6.33154 11.5553 7.35958 14.4314 7.51628 14.9293C7.67346 15.4277 7.7994 15.4395 7.7994 15.4395L8.26998 12.5277L13.0694 8.08747C13.1768 8.00595 13.1968 7.85316 13.1153 7.74577Z" fill="#CFD8DC"/>
</svg>
