<svg width="20" height="19" viewBox="0 0 20 19" fill="none" xmlns="http://www.w3.org/2000/svg">
<path d="M9.74413 0.638428C7.37299 0.638428 5.09895 1.58036 3.4223 3.25702C1.74565 4.93367 0.803711 7.2077 0.803711 9.57885C0.803711 11.95 1.74565 14.224 3.4223 15.9007C5.09895 17.5773 7.37299 18.5193 9.74413 18.5193C12.1153 18.5193 14.3893 17.5773 16.066 15.9007C17.7426 14.224 18.6846 11.95 18.6846 9.57885C18.6846 7.2077 17.7426 4.93367 16.066 3.25702C14.3893 1.58036 12.1153 0.638428 9.74413 0.638428Z" fill="#03A9F4"/>
<path d="M13.9906 8.68487C12.6272 8.68487 11.3196 9.22648 10.3555 10.1906C9.39146 11.1546 8.84985 12.4622 8.84985 13.8256C8.84985 15.189 9.39146 16.4966 10.3555 17.4607C11.3196 18.4247 12.6272 18.9664 13.9906 18.9664C15.354 18.9664 16.6616 18.4247 17.6256 17.4607C18.5897 16.4966 19.1313 15.189 19.1313 13.8256C19.1313 12.4622 18.5897 11.1546 17.6256 10.1906C16.6616 9.22648 15.354 8.68487 13.9906 8.68487ZM5.49719 0.191467C4.8221 0.191467 4.15361 0.324436 3.52991 0.582783C2.90621 0.841129 2.3395 1.21979 1.86213 1.69716C1.38477 2.17452 1.00611 2.74123 0.747761 3.36493C0.489415 3.98864 0.356445 4.65712 0.356445 5.33221C0.356445 6.0073 0.489415 6.67578 0.747761 7.29949C1.00611 7.92319 1.38477 8.4899 1.86213 8.96726C2.3395 9.44463 2.90621 9.82329 3.52991 10.0816C4.15361 10.34 4.8221 10.473 5.49719 10.473C6.17228 10.473 6.84076 10.34 7.46447 10.0816C8.08817 9.82329 8.65488 9.44463 9.13224 8.96726C9.6096 8.4899 9.98827 7.92319 10.2466 7.29949C10.505 6.67578 10.6379 6.0073 10.6379 5.33221C10.6379 4.65712 10.505 3.98864 10.2466 3.36493C9.98827 2.74123 9.6096 2.17452 9.13224 1.69716C8.65488 1.21979 8.08817 0.841129 7.46447 0.582783C6.84076 0.324436 6.17228 0.191467 5.49719 0.191467Z" fill="#03A9F4"/>
<path d="M10.013 14.9432C7.06177 14.9432 5.7207 13.4676 5.7207 12.35C5.7207 11.7684 6.12213 11.367 6.7037 11.367C7.95581 11.367 7.64334 13.2007 10.0126 13.2007C11.2191 13.2007 11.8896 12.5301 11.8896 11.8596C11.8896 11.4564 11.7099 11.0094 10.9066 10.7859L8.26828 10.1153C6.16772 9.57891 5.7663 8.41577 5.7663 7.29821C5.7663 5.0193 7.86685 4.21466 9.8333 4.21466C11.6665 4.21466 13.7671 5.19766 13.7671 6.53872C13.7671 7.1203 13.3201 7.47836 12.7385 7.47836C11.6665 7.47836 11.8444 5.9576 9.6983 5.9576C8.62634 5.9576 8.00096 6.45021 8.00096 7.16589C8.00096 7.88023 8.8494 8.10374 9.60934 8.28345L11.5771 8.73047C13.7215 9.22085 14.2141 10.473 14.2141 11.6795C14.1685 13.5565 12.8274 14.9432 10.013 14.9432Z" fill="white"/>
</svg>
