<svg width="19" height="19" viewBox="0 0 19 19" fill="none" xmlns="http://www.w3.org/2000/svg">
<path d="M16.293 3.20839C14.5912 1.50548 12.3292 0.567221 9.92162 0.56665C4.95109 0.56665 0.908535 4.60749 0.906251 9.5746C0.905679 11.2769 1.38195 12.9342 2.28423 14.3692L2.49895 14.7102L1.5881 18.0343L4.99906 17.14L5.32856 17.3353C6.71168 18.1565 8.29809 18.5905 9.91534 18.5911H9.91877C14.8859 18.5911 18.9284 14.5497 18.9301 9.58202C18.9307 7.17499 17.9947 4.9113 16.293 3.20839Z" fill="#40C351"/>
<path fill-rule="evenodd" clip-rule="evenodd" d="M7.20861 5.04323C7.00589 4.59209 6.79231 4.58295 6.59872 4.57496C6.44053 4.56811 6.26008 4.56868 6.07962 4.56868C5.89917 4.56868 5.60564 4.63663 5.35723 4.90789C5.10881 5.17914 4.40869 5.83415 4.40869 7.16701C4.40869 8.49987 5.3795 9.78819 5.51484 9.96865C5.65018 10.1491 7.38907 12.9719 10.1427 14.058C12.431 14.9603 12.897 14.781 13.3938 14.7359C13.8906 14.6908 14.9968 14.0809 15.2223 13.4481C15.4479 12.8154 15.4479 12.2735 15.3805 12.1604C15.3126 12.0473 15.1321 11.9799 14.8614 11.844C14.5907 11.7081 13.2585 11.0531 13.01 10.9629C12.7616 10.8726 12.5812 10.8275 12.4001 11.0988C12.2197 11.3695 11.7006 11.9799 11.5424 12.1604C11.3842 12.3414 11.226 12.3643 10.9554 12.2283C10.6847 12.0924 9.81209 11.8069 8.77675 10.8841C7.97155 10.1662 7.4279 9.27938 7.26972 9.00812C7.11153 8.73744 7.25259 8.59067 7.3885 8.45533C7.51013 8.3337 7.65918 8.13896 7.7951 7.98078C7.93044 7.82259 7.97555 7.70952 8.06578 7.52907C8.15601 7.34804 8.11089 7.18986 8.04294 7.05451C7.97612 6.9186 7.4496 5.57889 7.20861 5.04323Z" fill="white"/>
</svg>
