<svg width="19" height="19" viewBox="0 0 19 19" fill="none" xmlns="http://www.w3.org/2000/svg">
<path d="M9.3103 0.64209C4.34761 0.64209 0.310303 4.6794 0.310303 9.64209C0.310303 14.6048 4.34761 18.6421 9.3103 18.6421C14.273 18.6421 18.3103 14.6048 18.3103 9.64209C18.3103 4.6794 14.273 0.64209 9.3103 0.64209ZM10.2359 14.6693H8.2307V12.7979H10.2359V14.6693ZM11.5384 9.5937C10.9466 10.0342 10.3142 10.392 10.1904 11.2031V11.7264H8.33358V11.1075C8.41581 9.91022 8.97981 9.37416 9.53004 8.94766C10.0665 8.52157 10.5341 8.20543 10.5341 7.46222C10.5341 6.62301 10.0942 6.22425 9.36539 6.22425C8.37529 6.22425 7.96256 7.03573 7.9484 8.01245H5.9265C5.96801 6.04563 7.26086 4.61507 9.2688 4.61507C11.8685 4.61507 12.6941 6.21068 12.6941 7.26924C12.6941 8.6038 12.1301 9.14025 11.5384 9.5937Z" fill="#BFBFBF"/>
</svg>
