<svg width="187" height="217" viewBox="0 0 187 217" fill="none" xmlns="http://www.w3.org/2000/svg">
<path d="M16.8648 75.931C16.7235 60.9784 21.0801 46.3284 29.3688 33.8826C37.6575 21.4368 49.4956 11.7697 63.3471 6.13603C82.8297 -1.80902 104.649 -1.80902 124.132 6.13603C133.186 9.7624 141.408 15.192 148.298 22.0947C155.189 28.9974 160.603 37.2291 164.214 46.2896C168.09 55.6885 170.059 65.7643 170.006 75.931C170.194 90.8653 165.881 105.51 157.628 117.959C149.376 130.408 137.567 140.083 123.738 145.726C112.574 150.299 100.524 152.305 88.4799 151.593C76.4359 150.881 64.706 147.471 54.1579 141.614C42.6717 135.14 33.1663 125.659 26.662 114.189C20.0812 102.523 16.7011 89.3244 16.8648 75.931ZM57.3044 75.931C57.0904 86.1688 60.7856 96.1034 67.6378 103.713C70.9546 107.345 74.9919 110.245 79.4921 112.23C83.9923 114.214 88.8567 115.239 93.7751 115.239C98.6935 115.239 103.558 114.214 108.058 112.23C112.558 110.245 116.596 107.345 119.912 103.713C126.686 95.9995 130.3 86.0141 130.031 75.7522C130.245 65.5143 126.55 55.5797 119.698 47.9701C116.446 44.2043 112.399 41.2082 107.848 39.1985C103.296 37.1888 98.3553 36.2157 93.3819 36.3495C88.4744 36.2162 83.5988 37.1769 79.1089 39.1622C74.6189 41.1474 70.6271 44.1073 67.4233 47.8271C60.6032 55.5698 56.9853 65.6178 57.3044 75.931Z" fill="white"/>
<path d="M93.4551 216.2C59.2015 216.049 26.1958 203.325 0.705078 180.444L23.5172 154.807C42.6766 172.177 67.6124 181.797 93.473 181.797C119.334 181.797 144.269 172.177 163.429 154.807L186.205 180.444C160.721 203.337 127.711 216.063 93.4551 216.2Z" fill="white"/>
</svg>
