<svg width="69" height="70" viewBox="0 0 69 70" fill="none" xmlns="http://www.w3.org/2000/svg">
<rect y="0.439209" width="69" height="69" fill="url(#paint0_linear)"/>
<path d="M19.5897 27.6596C19.5622 24.7487 20.4103 21.8968 22.0239 19.4739C23.6375 17.051 25.9421 15.1691 28.6386 14.0724C32.4313 12.5257 36.6789 12.5257 40.4717 14.0724C42.2343 14.7783 43.8349 15.8353 45.1763 17.1791C46.5177 18.5229 47.5718 20.1254 48.2746 21.8892C49.0292 23.7189 49.4125 25.6804 49.4022 27.6596C49.4388 30.5669 48.5992 33.4179 46.9926 35.8413C45.3861 38.2647 43.0872 40.1483 40.3951 41.2468C38.2217 42.1371 35.8759 42.5275 33.5313 42.3889C31.1866 42.2504 28.9031 41.5865 26.8497 40.4463C24.6136 39.1859 22.7632 37.3402 21.497 35.1075C20.2159 32.8364 19.5579 30.2669 19.5897 27.6596ZM27.4622 27.6596C27.4206 29.6526 28.1399 31.5866 29.4739 33.068C30.1196 33.775 30.9055 34.3397 31.7816 34.726C32.6577 35.1123 33.6046 35.3119 34.5621 35.3119C35.5196 35.3119 36.4666 35.1123 37.3426 34.726C38.2187 34.3397 39.0046 33.775 39.6503 33.068C40.969 31.5664 41.6725 29.6225 41.6202 27.6248C41.6619 25.6317 40.9425 23.6977 39.6086 22.2164C38.9756 21.4833 38.1876 20.9 37.3016 20.5088C36.4156 20.1175 35.4537 19.9281 34.4855 19.9541C33.5302 19.9282 32.5811 20.1152 31.707 20.5017C30.8329 20.8882 30.0558 21.4644 29.4321 22.1885C28.1044 23.6958 27.4001 25.6519 27.4622 27.6596Z" fill="white"/>
<path d="M34.4998 54.9662C27.8315 54.9369 21.4062 52.4599 16.4438 48.0055L20.8848 43.0147C24.6146 46.396 29.4689 48.2689 34.5033 48.2689C39.5377 48.2689 44.392 46.396 48.1218 43.0147L52.5558 48.0055C47.5948 52.4622 41.1686 54.9395 34.4998 54.9662Z" fill="white"/>
<defs>
<linearGradient id="paint0_linear" x1="34.5" y1="0.439209" x2="34.5" y2="69.4392" gradientUnits="userSpaceOnUse">
<stop/>
<stop offset="1"/>
</linearGradient>
</defs>
</svg>
