<svg width="27" height="26" viewBox="0 0 27 26" fill="none" xmlns="http://www.w3.org/2000/svg">
<path fill-rule="evenodd" clip-rule="evenodd" d="M21.3631 2.8173H5.95051C4.53182 2.8173 3.38175 3.96737 3.38175 5.38606V20.7986C3.38175 22.2173 4.53182 23.3674 5.95051 23.3674H21.3631C22.7818 23.3674 23.9318 22.2173 23.9318 20.7986V5.38606C23.9318 3.96737 22.7818 2.8173 21.3631 2.8173ZM5.95051 0.248535C3.11314 0.248535 0.812988 2.54868 0.812988 5.38606V20.7986C0.812988 23.636 3.11314 25.9361 5.95051 25.9361H21.3631C24.2005 25.9361 26.5006 23.636 26.5006 20.7986V5.38606C26.5006 2.54868 24.2005 0.248535 21.3631 0.248535H5.95051Z" fill="#282828"/>
<path d="M12.0619 19.7711V12.43H10.9114V10.5856H12.0619V10.1839C12.0619 9.59951 12.1532 9.09427 12.3358 8.66817C12.5306 8.2299 12.7619 7.89511 13.0298 7.66379C13.2976 7.42031 13.6141 7.22552 13.9793 7.07943C14.3568 6.93334 14.6915 6.84203 14.9837 6.80551C15.2759 6.75681 15.5742 6.73246 15.8785 6.73246C16.2194 6.73246 16.4812 6.75072 16.6638 6.78725V8.75948C16.5664 8.73513 16.4081 8.72296 16.189 8.72296C14.9837 8.72296 14.3811 9.22819 14.3811 10.2387V10.5856H16.3899V12.43H14.3811V19.7711H12.0619Z" fill="#282828"/>
</svg>
