<svg width="27" height="26" viewBox="0 0 27 26" fill="none" xmlns="http://www.w3.org/2000/svg">
<path fill-rule="evenodd" clip-rule="evenodd" d="M21.1756 2.8173H5.76301C4.34432 2.8173 3.19425 3.96737 3.19425 5.38606V20.7986C3.19425 22.2173 4.34432 23.3674 5.76301 23.3674H21.1756C22.5943 23.3674 23.7443 22.2173 23.7443 20.7986V5.38606C23.7443 3.96737 22.5943 2.8173 21.1756 2.8173ZM5.76301 0.248535C2.92564 0.248535 0.625488 2.54868 0.625488 5.38606V20.7986C0.625488 23.636 2.92564 25.9361 5.76301 25.9361H21.1756C24.013 25.9361 26.3131 23.636 26.3131 20.7986V5.38606C26.3131 2.54868 24.013 0.248535 21.1756 0.248535H5.76301Z" fill="#282828"/>
<path fill-rule="evenodd" clip-rule="evenodd" d="M11.9642 9.36776C11.613 9.16498 11.1739 9.41846 11.1739 9.82402V16.2117C11.1739 16.6173 11.613 16.8708 11.9642 16.668L17.4961 13.4741C17.8473 13.2713 17.8473 12.7644 17.4961 12.5616L11.9642 9.36776ZM18.4967 15.2073L12.9648 18.4011C11.2794 19.3742 9.17264 18.1579 9.17264 16.2117V9.82402C9.17264 7.87786 11.2794 6.66152 12.9648 7.6346L18.4967 10.8284C20.1822 11.8015 20.1822 14.2342 18.4967 15.2073Z" fill="#282828"/>
</svg>
