<svg width="26" height="26" viewBox="0 0 26 26" fill="none" xmlns="http://www.w3.org/2000/svg">
<path fill-rule="evenodd" clip-rule="evenodd" d="M20.5501 2.8173H5.13752C3.71883 2.8173 2.56876 3.96737 2.56876 5.38606V20.7986C2.56876 22.2173 3.71883 23.3674 5.13752 23.3674H20.5501C21.9688 23.3674 23.1189 22.2173 23.1189 20.7986V5.38606C23.1189 3.96737 21.9688 2.8173 20.5501 2.8173ZM5.13752 0.248535C2.30015 0.248535 0 2.54868 0 5.38606V20.7986C0 23.636 2.30015 25.9361 5.13752 25.9361H20.5501C23.3875 25.9361 25.6876 23.636 25.6876 20.7986V5.38606C25.6876 2.54868 23.3875 0.248535 20.5501 0.248535H5.13752Z" fill="#282828"/>
<path fill-rule="evenodd" clip-rule="evenodd" d="M12.8438 16.6886C14.6881 16.6886 16.1832 15.1935 16.1832 13.3492C16.1832 11.5049 14.6881 10.0098 12.8438 10.0098C10.9995 10.0098 9.50442 11.5049 9.50442 13.3492C9.50442 15.1935 10.9995 16.6886 12.8438 16.6886ZM12.8438 18.7436C15.823 18.7436 18.2382 16.3285 18.2382 13.3492C18.2382 10.37 15.823 7.95482 12.8438 7.95482C9.86456 7.95482 7.44941 10.37 7.44941 13.3492C7.44941 16.3285 9.86456 18.7436 12.8438 18.7436Z" fill="#282828"/>
<path d="M21.0638 6.28512C21.0638 7.0654 20.4313 7.69794 19.651 7.69794C18.8707 7.69794 18.2382 7.0654 18.2382 6.28512C18.2382 5.50485 18.8707 4.8723 19.651 4.8723C20.4313 4.8723 21.0638 5.50485 21.0638 6.28512Z" fill="#282828"/>
</svg>
