<svg width="18" height="16" viewBox="0 0 18 16" fill="none" xmlns="http://www.w3.org/2000/svg">
<path d="M0.405969 8.30161C0.0268146 8.10627 0.0396262 7.81284 0.431279 7.64762L17.4543 0.466023C17.8475 0.30017 18.0796 0.502326 17.9747 0.910708L14.2152 15.5368C14.1095 15.9482 13.7306 16.0913 13.3802 15.8636L9.42447 13.293C9.2461 13.1771 8.99408 13.2221 8.86683 13.3867L7.21535 15.5236C6.95499 15.8605 6.63109 15.8034 6.4943 15.4033L4.97367 10.9545C4.90501 10.7537 4.69583 10.5118 4.50481 10.4133L0.405969 8.30161ZM5.00676 9.51363C5.38387 9.70792 5.8002 10.1891 5.93837 10.5933L6.97425 13.6238C7.04334 13.826 7.20463 13.8536 7.33774 13.6814L8.3933 12.3156C8.65491 11.9771 9.15637 11.8907 9.51406 12.1232L13.0584 14.4264C13.2378 14.543 13.4269 14.4674 13.4793 14.2639L16.5554 2.29594C16.6085 2.08958 16.4886 1.991 16.293 2.07353L2.50667 7.88963C2.30867 7.97316 2.30033 8.11928 2.48772 8.21582L5.00676 9.51363Z" fill="white"/>
</svg>
